<svg xmlns="http://www.w3.org/2000/svg" width="33.1" height="19.13" viewBox="0 0 33.1 19.13">
  <defs>
    <style>
      .cls-1 {
        fill: #939598;
        fill-rule: evenodd;
      }
    </style>
  </defs>
  <path id="Shape_3_copy_4" data-name="Shape 3 copy 4" class="cls-1" d="M1764.93,1193.8a3.31,3.31,0,1,0,3.31,3.31A3.295,3.295,0,0,0,1764.93,1193.8Zm0,5.15a1.84,1.84,0,1,1,1.84-1.84A1.823,1.823,0,0,1,1764.93,1198.95Zm15.44-5.15a3.31,3.31,0,1,0,3.31,3.31A3.295,3.295,0,0,0,1780.37,1193.8Zm0,5.15a1.84,1.84,0,1,1,1.84-1.84A1.823,1.823,0,0,1,1780.37,1198.95Zm4.42-11.4h-24.28a4.43,4.43,0,0,0-4.41,4.41v10.3a4.424,4.424,0,0,0,4.41,4.41h5.34a4.354,4.354,0,0,0,3.31-1.5l1.28-1.47a2.942,2.942,0,0,1,2.21-1h0a2.958,2.958,0,0,1,2.21,1l1.28,1.47a4.465,4.465,0,0,0,3.31,1.5h5.34a4.424,4.424,0,0,0,4.41-4.41v-10.3A4.43,4.43,0,0,0,1784.79,1187.55Zm2.94,14.71a2.951,2.951,0,0,1-2.94,2.94h-5.34a2.927,2.927,0,0,1-2.2-.99l-1.29-1.47a4.439,4.439,0,0,0-3.31-1.51h0a4.314,4.314,0,0,0-3.31,1.51l-1.29,1.47a2.927,2.927,0,0,1-2.2.99h-5.34a2.951,2.951,0,0,1-2.94-2.94v-10.3a2.958,2.958,0,0,1,2.94-2.94h24.28a2.958,2.958,0,0,1,2.94,2.94v10.3Z" transform="translate(-1756.09 -1187.56)"/>
</svg>
